**ABCDEFGHIJKLMNOPQRSTUVWXYZabcdefghijklmnopqrstuvwxyz**************************
**PARASOLID !"#$%&'()*+,-./:;<=>?@[\]^_`{|}~0123456789**************************
**PART1;
MC=unknown;
MC_MODEL=unknown;
MC_ID=unknown;
OS=unknown;
OS_RELEASE=unknown;
FRU=Parasolid 34.1.198;
APPL=Onshape;
SITE=unknown;
USER=unknown;
FORMAT=text;
GUISE=transmit;
KEY=BTGapi::writeModels_.xmt;
FILE=BTGapi::writeModels_.xmt;
DATE=2022-10-14T06:39:09 (UTC);
**PART2;
SCH=SCH_3401198_34101;
USFLD_SIZE=0;
**PART3;
**END_OF_HEADER*****************************************************************
T51 : TRANSMIT FILE created by modeller version 340119823 SCH_3401198_34101_1300
6231 0 176 6 14 PART_XMT_BLOCK9 Part list9 n_entries0 0 1 d16 index_map_offset0
 0 1 d9 index_map82 0 20 schema_embedding_map82 0 16 mesh_offset_data206 0 7 ent
ries1005 1 T2 1 2 0 0 0 0 2 3 12 36 CCCI7 lattice222 0 CCCI4 mesh1006 0 I8 polyl
ine1008 0 CCCCCCCDI5 owner1040 0 CCCI16 boundary_lattice222 0 CCCI13 boundary_me
sh1006 0 I17 boundary_polyline1008 0 CCCA16 index_map_offset0 0 1 dA9 index_map8
2 0 A17 node_id_index_map82 0 A20 schema_embedding_map82 0 A5 child12 0 A14 lowe
st_node_id0 0 1 dA16 mesh_offset_data206 0 Z2 685 4 5 0 0 0 0 0 0 0 1e3 1e-8 0 6
 3 1 0 1 1 7 0 8 9 10 0 0 11 12 13 0 0 0 0 0 0 0 12 3 682 14 15 0 0 0 0 0 0 0 1e
3 1e-8 0 2 0 1 0 1 1 16 0 17 18 19 0 0 20 21 22 0 0 0 0 0 0 0 81 255 1 14 676 23
 3 24 0 0 0 25 70 11 CI9 list_type0 0 1 uI10 notransmit0 0 1 lCCCDCCDI12 finger_
index0 0 1 dI12 finger_block1012 0 CZ15 0 4 T3 0 0 8 20 1 26 26 13 255 16 29 0 3
 0 27 0 0 28 0 50 255 17 97 0 29 30 0 0 +0 -.170290017247427 0 1 0 0 0 0 -1 30 2
55 18 438 0 3 31 0 32 +-.078507489728706 -.160774753181773 0 .3973597071195135 -
.917662935482247 0 29 255 19 434 0 22 33 0 -.00259807621135322 -.336080034494853
5 -555111512312578e-31 19 9 CCCCCCI5 frame230 0 CA5 owner12 0 Z20 1 0 3 28 0 34
 0 V0 16 255 21 435 35 ?36 0 37 31 0 0 3 18 255 22 428 38 39 0 40 19 ?3 81 1 38
 662 41 22 0 0 42 43 44 17 255 39 0 45 36 46 22 47 48 0 49 +18 40 21 50 51 22 52
 53 5e-7 3 81 1 50 222 41 40 54 0 55 56 57 17 51 0 58 59 60 40 61 37 0 62 -18 52
 16 63 61 40 64 33 5e-7 3 29 53 92 0 40 65 33 0 -888178419700125e-32 -.1975 29 6
5 79 0 66 67 53 -.1975 0 -.1975 29 33 88 0 52 53 19 0 .0015 -.194901923788647 18
 66 6 68 59 64 69 65 5e-7 3 29 67 84 0 64 70 65 -.1975 .0015 -.194901923788647 1
8 64 11 71 72 52 66 67 5e-7 3 29 70 632 0 73 74 67 0 -.3420800344948545 0 18 73
 535 43 36 69 0 70 5e-7 3 29 74 633 0 69 0 70 0 -.336080034494854 44408920985006
25e-31 18 69 530 75 46 66 73 74 ?3 81 1 75 664 41 69 0 0 43 35 76 17 46 0 45 39
 36 69 77 78 0 47 +15 255 45 560 0 39 79 0 17 36 0 45 46 39 73 49 21 0 77 +17 77
 0 80 81 82 73 46 78 0 83 -16 78 487 84 ?46 48 0 85 0 0 3 17 47 0 86 87 88 69 39
 48 0 82 -15 86 451 0 47 27 0 17 87 0 86 72 47 52 82 89 0 0 -17 88 0 86 47 72 22
 90 91 0 0 +16 48 524 92 ?39 93 78 94 0 0 3 17 82 0 80 77 61 69 87 89 0 0 +15 80
 457 0 77 29 0 17 61 0 80 82 81 52 51 37 0 60 +16 89 15 95 ?82 96 97 98 0 0 3 81
 1 95 669 41 89 99 0 100 101 102 16 96 17 103 ?60 104 89 105 0 0 3 16 97 12 106
 ?107 89 91 108 0 0 3 133 255 98 160 0 89 109 110 0 +110 0 .001500000000000195 -
.1949019237886465 0 -.336080034494854 1665334536937735e-31 -.1231127404735814 .2
66691107103713 30 109 96 0 3 111 98 112 +0 .0222237521559283 -.159007332131114 0
 .5 .866025403784439 30 110 89 0 3 98 31 113 +0 -.105118760779642 -.133345553551
856 0 -.866025403784439 .5 133 31 437 0 21 110 18 0 +18 -.00259807621135322 -.33
60800344948535 -555111512312578e-31 -123789867245705e-30 -.342080034494853 -1647
987302177965e-32 .191034501378172 .1975728497934825 141 255 113 98 113 113 110 1
33 111 157 0 37 114 109 0 +109 0 763278329429795e-31 -.1975 0 .00149999999999995
6 -.194901923788647 -.04444750431185645 -.0414475043118567 141 112 111 112 112 1
09 16 37 25 42 ?61 21 115 111 0 0 3 30 114 93 0 3 116 111 117 +0 -.1066187607796
42 -.13594362976321 0 .866025403784439 -.5 133 116 154 0 104 118 114 0 +114 0 -.
3420800344948535 -527355936696949e-30 0 -235922392732846e-30 -.1975 -.2718872595
26419 .123112740473581 141 117 116 117 117 114 16 104 20 55 ?81 115 96 116 0 0 3
 30 118 90 0 3 105 116 119 +.09875 .0015 -.194901923788647 1 0 0 133 105 147 0 9
6 120 118 0 +118 -.1975 .0015 -.194901923788647 0 .0015 -.194901923788647 -.2962
5 -.09875 141 119 105 119 119 118 30 120 86 0 3 108 105 121 +-.1975 .0015 -.1949
01923788647 0 .5 .866025403784439 133 108 144 0 97 122 120 0 +120 -.1975 1227316
85925359e-30 -.1975 -.1975 .0015 -.194901923788647 -.002999999999999755 0 141 12
1 108 121 121 120 30 122 94 0 3 123 108 124 +.09875 -888178419700125e-32 -.1975
 1 0 0 133 123 141 0 115 125 122 0 +122 -.1975 -888178419700125e-32 -.1975 0 -88
8178419700125e-32 -.1975 -.29625 -.09875 141 124 123 124 124 122 16 115 22 56 ?6
2 37 104 123 0 0 3 30 125 81 0 3 126 123 127 +-.158 -.0684160068989707 -.158 .44
7213595499958 -.774596669241483 .447213595499958 133 126 134 0 93 128 125 0 +125
 -.1975 -277555756156289e-31 -.1975 0 -.342080034494853 0 -.0883246851112418 .35
32987404449665 141 127 126 127 127 125 16 93 5 129 ?130 91 48 126 0 0 3 30 128 8
5 0 3 131 126 132 +-.158 -.0669160068989707 -.155401923788647 .447213595499958 -
.774596669241483 .447213595499958 133 131 127 0 91 94 128 0 +128 -.1975 .0014999
9999999996 -.194901923788647 -.00259807621135322 -.3360800344948535 -55511151231
2578e-31 -.0883246851112417 .347489265425656 141 132 131 132 132 128 16 91 10 10
0 ?88 97 93 131 0 0 3 30 94 597 0 48 133 131 0 +.1975 -.336080034494854 0 -1 0 0
 30 133 616 0 3 85 94 134 +0 -.170290017247427 0 0 1 0 133 85 617 0 78 0 133 0 +
133 0 -.3420800344948545 0 0 -.336080034494853 -1387778780781446e-32 -.171790017
2474275 -.165790017247426 141 134 85 134 134 133 81 1 100 668 41 91 135 0 84 95
 136 80 7 CCCCCDI12 legal_owners0 16 1 lCZ1 41 137 138 9000 0 0 0 0 3 6 0 0 0 FF
TFTFTTFFFFFFFF1 81 1 135 195 139 91 0 100 140 141 142 81 1 84 667 41 78 0 0 92 1
00 143 82 255 3 136 9 3 1 81 1 92 666 41 48 0 0 35 84 144 82 3 143 9 2 1 81 1 35
 665 41 21 0 0 75 92 145 82 3 144 9 1 1 82 3 145 9 0 1 80 1 139 146 147 9000 0 0
 0 0 3 5 0 0 0 FFTFTFTTFFFFFFFF2 81 1 140 194 139 97 0 106 99 135 148 81 1 141 1
97 139 93 0 129 135 149 150 83 255 1 142 33 81 1 129 208 41 93 141 0 151 68 152
 81 1 149 198 139 29 0 153 141 154 155 83 1 150 35 14 255 29 26 156 ?157 158 80
 16 17 +0 0 157 158 34 81 1 153 673 41 29 149 156 159 0 160 81 1 154 199 139 157
 0 161 149 162 163 83 1 155 36 14 157 23 164 ?165 29 58 16 30 -0 0 165 29 34 81
 1 161 224 41 157 154 164 56 42 166 81 1 162 200 139 165 0 167 154 168 169 83 1
 163 37 14 165 18 170 ?79 157 171 16 172 +0 0 79 157 34 81 1 167 220 41 165 162
 170 103 55 173 81 1 168 203 139 3 174 175 162 176 177 83 1 169 38 81 1 174 181
 178 3 0 168 0 0 179 81 1 175 204 180 3 168 151 0 0 181 81 1 176 442 139 158 0 1
82 168 183 184 83 1 177 41 14 158 3 185 ?29 27 186 16 187 -0 0 29 27 34 81 1 182
 671 41 158 176 185 101 159 188 81 1 183 455 139 27 0 159 176 189 190 83 1 184 4
0 14 27 13 191 ?158 0 86 16 192 -0 0 158 0 34 81 1 159 672 41 27 183 191 182 153
 193 81 1 189 557 139 79 0 101 183 0 194 83 1 190 39 14 79 582 195 ?0 165 45 16
 196 +0 0 0 165 34 81 1 101 670 41 79 189 195 95 182 197 83 1 194 15 81 1 195 68
2 198 79 101 0 170 0 199 82 3 197 9 0 2 80 1 198 0 200 8001 0 0 0 0 3 5 0 0 0 FF
FFTFTFFFFFFFFF2 81 1 170 681 198 165 167 0 164 195 201 83 3 199 .627450980392157
 .627450980392157 .627450980392157 81 1 164 680 198 157 161 0 156 170 202 83 3 2
01 .627450980392157 .627450980392157 .627450980392157 81 1 156 679 198 29 153 0
 185 164 203 83 3 202 .627450980392157 .627450980392157 .627450980392157 81 1 18
5 678 198 158 182 0 191 156 204 83 3 203 .627450980392157 .627450980392157 .6274
50980392157 81 1 191 677 198 27 159 0 0 185 205 83 3 204 .627450980392157 .62745
0980392157 .627450980392157 83 3 205 .627450980392157 .627450980392157 .62745098
0392157 79 255 15 200 SDL/TYSA_COLOUR50 196 593 0 79 0 187 0 +-177635683940025e-
31 -.170290017247427 0 0 0 1 1 0 0 13 34 2 0 0 0 0 0 0 20 27 50 187 78 0 158 196
 192 0 +-.09875 -.169540017247427 -.0961519237886467 .894427190999916 .387298334
620742 -.223606797749979 -.242535625036333 0 -.970142500145332 50 192 87 0 27 18
7 172 0 +.1975 .0015 -.194901923788647 0 -.5 -.866025403784439 1 0 0 50 172 91 0
 165 192 30 0 +.1975 0 -.1975 0 -.5 -.866025403784439 1 0 0 50 30 95 0 157 172 1
7 0 +0 .0015 -.194901923788647 0 -.866025403784439 .5 0 -.5 -.866025403784439 82
 3 193 9 2 2 82 3 188 9 1 2 15 186 436 0 49 158 0 17 49 0 186 90 130 22 36 21 0
 88 -17 90 0 186 206 49 64 88 91 0 0 -17 130 0 186 49 206 73 207 93 0 0 +17 206
 0 186 130 90 66 107 97 0 207 -17 207 0 171 62 83 66 130 93 0 0 -15 171 19 0 83
 165 0 17 62 0 171 83 207 40 59 115 0 81 +17 83 0 171 207 62 73 81 104 0 130 -17
 81 0 80 61 77 40 83 104 0 0 +17 59 0 58 107 51 66 62 115 0 206 -15 58 24 0 51 1
57 0 17 107 0 58 60 59 64 206 97 0 90 +17 60 0 58 51 107 52 72 96 0 87 +17 72 0
 86 88 87 64 60 96 0 107 -80 1 180 139 208 9000 0 0 0 0 3 5 0 0 0 FFTFTFTTFFFFFF
FF2 81 1 151 206 41 3 175 209 0 129 210 83 1 181 625 81 1 209 674 211 3 151 24 0
 0 212 82 3 210 4 1 3 80 1 211 213 214 8038 0 0 0 0 0 0 0 0 0 TTTTTTTTTTTTTFTF10
 81 1 24 675 213 3 209 14 0 0 215 98 255 25 212 53 95 49 54 32 84 119 105 115 11
6 32 83 104 101 101 116 32 77 111 100 101 108 32 118 55 80 1 213 216 217 8017 0
 0 0 0 0 0 0 0 0 TTTTTTTTTTTTTFTF3 84 255 25 215 5_16 Twist Sheet Model v779 13
 217 SDL/TYSA_NAME79 14 214 SDL/TYSA_UNAME79 18 208 BTI/importMaxCount80 1 178 2
18 219 9000 0 0 0 0 3 5 0 0 0 TTTFFFFFFFFFFFFF1 82 1 179 8 79 23 219 ONSHAPE_ORI
GINALBODY_ID81 1 103 219 41 96 220 0 63 167 221 81 1 55 221 41 104 222 0 167 50
 223 82 3 173 4 7 2 81 1 222 191 139 104 0 55 224 220 225 82 3 223 4 15 1 81 1 2
24 190 139 115 0 56 226 222 227 81 1 220 192 139 96 0 103 222 99 228 83 1 225 29
 81 1 99 193 139 89 0 95 220 140 229 83 1 228 30 83 1 229 31 81 1 56 223 41 115
 224 0 50 161 230 81 1 226 189 139 37 0 42 231 224 232 83 1 227 28 81 1 42 225 4
1 37 226 0 161 38 233 81 1 231 188 139 66 0 68 234 226 235 83 1 232 27 81 1 68 2
09 41 66 231 0 129 71 236 81 1 234 185 139 64 0 71 237 231 238 83 1 235 26 81 1
 71 214 41 64 234 0 68 106 239 81 1 237 184 139 52 0 63 54 234 240 83 1 238 23 8
1 1 63 218 41 52 237 0 106 103 241 81 1 54 183 139 40 0 50 0 237 242 83 1 240 22
 83 1 242 21 81 1 106 215 41 97 140 0 71 63 243 82 3 241 4 10 0 82 3 243 4 12 1
 82 3 239 4 9 0 82 3 236 4 6 0 82 3 233 4 17 1 82 3 230 4 16 1 82 3 221 4 14 1 8
2 3 166 4 8 2 82 3 160 9 3 2 82 3 152 4 9 1 83 1 148 32 79 13 147 BTI/importTag7
9 9 138 BTI/DetId82 3 102 9 4 1 81 1 43 663 41 73 0 0 38 75 244 82 3 76 9 2 0 82
 3 244 9 1 0 82 3 57 4 11 0 82 3 44 9 0 0 19 28 28 0 3 0 20 16 0 S0 141 32 31 32
 32 18 74 4 CI16 index_map_offset0 0 1 dCCZ20 26 8 0 0 174 189 175 153 209 24 14
 195 0 0 0 0 0 0 0 0 0 0 0 0 80 1 23 198 245 8040 0 0 0 0 3 5 0 0 0 TTTFFFFFFFFF
FFFF2 83 3 25 .627450980392157 .627450980392157 .627450980392157 79 17 245 SDL/T
YSA_COLOUR_281 1 4 679 23 2 246 0 0 0 247 70 5 0 4 T2 0 0 8 20 1 248 248 13 7 29
 0 2 0 249 0 0 250 0 50 8 97 0 249 251 0 0 +-177635683940025e-31 -.1702900172474
27 0 0 0 1 1 0 0 133 9 256 0 252 253 0 0 +254 1665334536937735e-31 -.33608003449
4854 0 -.1949019237886465 .00150000000000021 0 -.266691107103713 .12311274047358
14 29 10 88 0 13 255 0 -532907051820075e-31 -.342080034494853 888178419700125e-3
1 19 11 1 0 2 250 0 256 0 V0 16 12 243 257 ?258 0 259 260 0 0 2 18 13 16 261 262
 0 263 10 5e-7 2 81 1 261 478 41 13 0 0 264 257 265 17 262 0 266 258 267 13 268
 269 0 270 -18 263 11 271 272 13 273 274 5e-7 2 81 1 271 214 41 263 275 0 276 27
7 278 17 272 0 279 280 270 263 281 282 0 283 -18 273 9 284 285 263 286 287 5e-7
 2 29 274 84 0 263 288 287 -.1975 0 -.1975 29 288 442 0 289 290 274 -55511151231
2578e-31 -.3360800344948535 -.00259807621135322 29 287 82 0 273 274 291 -.194901
923788647 .0015 -.1975 29 291 79 0 292 287 255 -.194901923788647 .0015 0 18 292
 6 293 294 286 289 291 5e-7 2 29 255 80 0 286 291 10 -.1975 0 0 18 286 7 295 296
 273 292 255 5e-7 2 81 1 295 210 41 286 297 0 293 298 299 17 296 0 300 283 281 2
86 301 259 0 302 -15 300 24 0 296 303 0 17 283 0 300 281 296 263 302 304 0 305 +
17 281 0 300 296 283 13 272 282 0 0 +17 301 0 306 268 307 13 296 259 0 281 +16 2
59 25 308 ?301 12 252 309 0 0 2 17 302 0 310 311 305 286 283 304 0 307 -15 310 4
 0 311 312 0 17 311 0 310 313 302 292 307 314 0 0 -17 305 0 310 302 313 263 280
 315 0 0 -16 304 12 277 ?283 282 315 316 0 0 2 17 307 0 306 301 294 286 311 314
 0 0 +15 306 27 0 301 249 0 17 294 0 306 307 268 292 317 252 0 318 +16 314 5 319
 ?307 320 269 321 0 0 2 81 1 319 208 41 314 322 0 323 293 324 16 320 8 298 ?313
 315 314 325 0 0 2 16 269 282 326 ?268 314 327 328 0 0 2 133 321 163 0 314 254 3
29 0 +329 -.194901923788647 .001499999999999956 0 -.1975 763278329429795e-31 0 .
0414475043118567 .04444750431185645 30 254 94 0 2 330 321 331 +-.133345553551856
 -.105118760779642 0 -.5 .866025403784439 0 30 329 81 0 2 321 260 332 +-.1590073
32131114 .0222237521559283 0 -.866025403784439 -.5 0 133 260 245 0 12 329 253 0
 +253 -3317658647805645e-32 -.342080034494853 -52735593669695e-30 -5551115123125
78e-31 -.3360800344948535 -.00259807621135322 -.1975728497934825 -.1910345013781
72 141 332 321 332 332 329 30 253 246 0 2 260 9 333 +0 -.160774753181773 -.07850
7489728706 0 .917662935482247 -.3973597071195135 141 333 260 333 333 253 30 330
 96 0 2 309 254 334 +-.13594362976321 -.106618760779642 0 .5 -.866025403784439 0
 141 331 9 331 331 254 133 309 154 0 259 335 330 0 +330 -.1975 -235922392732846e
-30 0 -582867087928207e-30 -.3420800344948535 0 -.123112740473581 .2718872595264
19 141 334 309 334 334 330 30 335 89 0 2 336 309 337 +-.158 -.0684160068989707 -
.158 .447213595499958 -.774596669241483 .447213595499958 133 336 147 0 282 338 3
35 0 +335 -.1975 -277555756156289e-31 -.1975 0 -.342080034494853 0 -.08832468511
12418 .3532987404449665 141 337 336 337 337 335 16 282 15 339 ?281 340 304 336 0
 0 2 30 338 86 0 2 316 336 341 +-.1975 0 -.09875 0 0 -1 133 316 144 0 304 342 33
8 0 +338 -.1975 0 0 -.1975 0 -.1975 -.09875 .09875 141 341 316 341 341 338 30 34
2 83 0 2 325 316 343 +-.194901923788647 .0015 -.09875 0 0 -1 133 325 137 0 320 3
44 342 0 +342 -.194901923788647 .0015 0 -.194901923788647 .0015 -.1975 -.09875 .
09875 141 343 325 343 343 342 30 344 91 0 2 345 325 346 +-.155401923788647 -.066
9160068989707 -.158 .447213595499958 -.774596669241483 .447213595499958 133 345
 134 0 340 347 344 0 +344 -.194901923788647 .00149999999999996 -.1975 -555111512
312578e-31 -.3360800344948535 -.00259807621135322 -.0883246851112417 .3474892654
25656 141 346 345 346 346 344 16 340 17 348 ?349 252 282 345 0 0 2 30 347 85 0 2
 350 345 351 +-.194901923788647 .0015 -.1975 .866025403784439 .5 0 133 350 127 0
 315 352 347 0 +347 -.1975 122731685925359e-30 -.1975 -.194901923788647 .0015 -.
1975 -.002999999999999755 0 141 351 350 351 351 347 16 315 10 276 ?280 304 320 3
50 0 0 2 30 352 405 0 2 328 350 353 +0 -.170290017247427 0 0 1 0 133 328 406 0 2
69 354 352 0 +352 0 -.3420800344948545 0 0 -.336080034494853 -1387778780781446e-
32 -.1717900172474275 -.165790017247426 141 353 328 353 353 352 30 354 407 0 327
 0 328 0 +0 -.336080034494854 -.1975 0 0 1 16 327 332 355 ?267 269 0 354 0 0 2 8
1 1 355 480 41 327 0 0 257 326 356 17 267 0 266 262 258 357 358 327 0 268 +15 26
6 370 0 258 359 0 17 258 0 266 267 262 289 270 12 0 358 +18 357 338 264 267 289
 0 290 ?2 17 358 0 360 285 317 289 267 327 0 349 -17 268 0 306 294 301 357 262 2
69 0 317 +17 317 0 360 358 318 357 294 252 0 0 -15 360 259 0 358 361 0 17 318 0
 360 317 285 292 313 320 0 311 -16 252 22 362 ?294 259 340 9 0 0 2 81 1 362 483
 41 252 363 0 348 364 365 81 1 363 255 139 252 0 362 366 367 368 81 1 348 482 41
 340 369 0 326 362 370 81 1 364 484 41 359 371 372 362 373 374 82 3 365 7 4 1 14
 359 392 372 ?0 312 266 7 375 +0 0 0 312 256 81 1 371 367 139 359 0 364 376 0 37
7 81 1 372 685 198 359 364 0 378 0 379 81 1 373 485 41 380 366 381 364 382 383 8
2 3 374 7 0 2 14 380 13 381 ?303 361 279 7 384 -0 0 303 361 256 81 1 366 250 139
 380 0 373 385 363 386 81 1 381 682 198 380 373 0 387 388 389 81 1 382 486 41 36
1 367 387 373 390 391 82 3 383 7 1 2 14 361 20 387 ?380 249 360 7 392 -0 0 380 2
49 256 81 1 367 263 139 361 0 382 363 376 393 81 1 387 681 198 361 382 0 394 381
 395 81 1 390 487 41 249 376 394 382 0 396 82 3 391 7 2 2 14 249 26 394 ?361 0 3
06 7 8 +0 0 361 0 256 81 1 376 270 139 249 0 390 367 371 397 81 1 394 680 198 24
9 390 0 0 387 398 82 3 396 7 3 2 83 3 398 .627450980392157 .627450980392157 .627
450980392157 83 1 397 15 13 256 2 0 0 0 0 0 0 11 249 83 3 395 .627450980392157 .
627450980392157 .627450980392157 83 1 393 17 50 392 93 0 361 384 251 0 +-.194901
923788647 .0015 -.1975 -.866025403784439 -.5 0 0 0 -1 50 384 87 0 380 399 392 0
 +-.0961519237886467 -.169540017247427 -.09875 -.223606797749979 .38729833462074
2 .894427190999916 .970142500145332 0 .242535625036333 50 251 95 0 303 392 8 0 +
-.1975 0 -.1975 -.866025403784439 -.5 0 0 0 -1 14 303 23 388 ?312 380 300 7 251
 +0 0 312 380 256 81 1 388 683 198 303 400 0 381 378 401 14 312 3 378 ?359 303 3
10 7 399 -0 0 359 303 256 81 1 378 684 198 312 323 0 388 372 402 50 399 78 0 312
 375 384 0 +-.194901923788647 .0015 0 .5 -.866025403784439 0 0 0 -1 50 375 403 0
 359 0 399 0 +0 -.170290017247427 0 1 0 0 0 0 -1 81 1 323 207 41 312 403 378 404
 319 405 83 3 402 .627450980392157 .627450980392157 .627450980392157 81 1 403 20
2 139 312 0 323 406 385 407 81 1 404 206 41 2 408 409 0 323 410 82 3 405 4 0 2 8
1 1 408 204 180 2 385 404 0 0 411 81 1 409 677 211 2 404 246 0 0 412 82 3 410 4
 0 3 81 1 246 678 213 2 409 4 0 0 413 98 25 412 53 95 49 54 32 84 119 105 115 11
6 32 83 104 101 101 116 32 77 111 100 101 108 32 118 55 84 25 413 5_16 Twist She
et Model v781 1 385 203 139 2 414 408 403 366 415 83 1 411 625 81 1 414 181 178
 2 0 385 0 0 416 83 1 415 20 82 1 416 9 81 1 406 199 139 303 0 400 322 403 417 8
3 1 407 19 81 1 400 224 41 303 406 388 339 308 418 81 1 322 197 139 314 0 319 41
9 406 420 83 1 417 16 81 1 419 196 139 320 0 298 421 322 422 83 1 420 14 81 1 29
8 211 41 320 419 0 295 284 423 81 1 421 195 139 315 0 276 424 419 425 83 1 422 1
3 81 1 276 213 41 315 421 0 284 271 426 81 1 424 194 139 304 0 277 427 421 428 8
3 1 425 12 81 1 277 215 41 304 424 0 271 339 429 81 1 427 193 139 282 0 339 369
 424 430 83 1 428 11 81 1 339 217 41 282 427 0 277 400 431 81 1 369 192 139 340
 0 348 432 427 433 83 1 430 10 81 1 432 189 139 259 0 308 434 369 435 83 1 433 9
 81 1 308 225 41 259 432 0 400 436 437 81 1 434 188 139 292 0 293 297 432 438 83
 1 435 6 81 1 293 209 41 292 434 0 319 295 439 81 1 297 187 139 286 0 295 440 43
4 441 83 1 438 5 81 1 440 186 139 273 0 284 275 297 442 83 1 441 4 81 1 284 212
 41 273 440 0 298 276 443 81 1 275 185 139 263 0 271 0 440 444 83 1 442 3 83 1 4
44 2 82 3 443 4 2 0 82 3 439 4 0 0 81 1 436 476 41 289 0 0 308 264 445 82 3 437
 4 8 1 18 289 339 436 258 292 357 288 ?2 81 1 264 477 41 357 0 0 436 261 446 82
 3 445 7 0 0 82 3 446 7 1 0 82 3 431 4 4 1 82 3 429 4 3 1 82 3 426 4 2 1 82 3 42
3 4 1 1 82 3 418 4 3 2 83 3 401 .627450980392157 .627450980392157 .6274509803921
57 83 3 389 .627450980392157 .627450980392157 .627450980392157 83 1 386 18 15 27
9 244 0 270 380 0 17 270 0 279 272 349 13 258 12 0 301 -17 349 0 279 270 280 289
 285 340 0 0 +17 280 0 279 349 272 273 305 315 0 313 +17 285 0 360 318 358 273 3
49 340 0 280 -17 313 0 310 305 311 273 318 320 0 0 +83 3 379 .627450980392157 .6
27450980392157 .627450980392157 83 1 377 36 81 1 326 481 41 269 0 0 355 348 447
 82 3 370 7 3 1 82 3 447 7 2 1 83 1 368 7 29 290 443 0 357 0 288 0 -.33608003449
4854 4440892098500625e-31 81 1 257 479 41 12 0 0 261 355 448 82 3 356 7 1 1 82 3
 448 7 0 1 82 3 324 4 0 1 82 3 299 4 1 0 82 3 278 4 3 0 82 3 265 7 2 0 19 250 28
 0 2 0 11 7 0 S0 74 20 248 8 0 0 414 371 408 390 409 246 4 372 0 0 0 0 0 0 0 0 0
 0 0 0 83 3 247 .627450980392157 .627450980392157 .627450980392157 1 0 
